<svg width="168" height="53" viewBox="0 0 168 53" fill="none" xmlns="http://www.w3.org/2000/svg">
<path d="M26.5 0C20.8221 0 15.5552 1.78797 11.2448 4.82941C8.34572 6.86588 5.88107 9.47908 4.00407 12.4924C1.46441 16.556 0 21.3557 0 26.5008C0 31.6459 1.46441 36.4456 4.00407 40.5092V24.9222C4.41042 18.98 7.12199 13.6693 11.2448 9.87606C15.263 6.18758 20.6189 3.94167 26.5 3.94167C38.9545 3.94167 49.0569 14.0365 49.0569 26.4992C49.0569 38.9541 38.9545 49.0568 26.5 49.0568C20.6189 49.0568 15.263 46.8109 11.2448 43.1146V48.1706C15.5568 51.212 20.8221 53 26.5 53C41.1316 53 53 41.1312 53 26.4992C53 11.861 41.1316 0 26.5 0Z" fill="white"/>
<path d="M40.8857 26.5384C40.8857 32.1346 37.6979 36.9934 33.0451 39.3784V23.9893H29.8145V40.5724C29.312 40.6936 28.802 40.7852 28.2847 40.8488V18.1021H25.0557V40.8857C24.4175 40.8296 23.7941 40.7217 23.1854 40.5739V29.352H19.9548V39.3799C15.3021 36.9934 12.1143 32.1346 12.1143 26.5384C12.1143 18.5705 18.5533 12.1143 26.5 12.1143C34.4408 12.1143 40.8857 18.5705 40.8857 26.5384Z" fill="white"/>
<path d="M63.736 36V19.2H70.024C71.448 19.2 72.672 19.432 73.696 19.896C74.72 20.344 75.504 21 76.048 21.864C76.608 22.712 76.888 23.744 76.888 24.96C76.888 26.144 76.608 27.168 76.048 28.032C75.504 28.88 74.72 29.536 73.696 30C72.672 30.464 71.448 30.696 70.024 30.696H64.72L65.512 29.856V36H63.736ZM65.512 30L64.72 29.136H69.976C71.656 29.136 72.928 28.776 73.792 28.056C74.672 27.32 75.112 26.288 75.112 24.96C75.112 23.616 74.672 22.576 73.792 21.84C72.928 21.104 71.656 20.736 69.976 20.736H64.72L65.512 19.896V30ZM80.4642 36V19.2H86.7522C88.1762 19.2 89.4002 19.432 90.4242 19.896C91.4482 20.344 92.2322 21 92.7762 21.864C93.3362 22.712 93.6162 23.744 93.6162 24.96C93.6162 26.144 93.3362 27.168 92.7762 28.032C92.2322 28.88 91.4482 29.536 90.4242 30C89.4002 30.448 88.1762 30.672 86.7522 30.672H81.4482L82.2402 29.856V36H80.4642ZM91.9362 36L87.6162 29.904H89.5362L93.8802 36H91.9362ZM82.2402 30L81.4482 29.16H86.7042C88.3842 29.16 89.6562 28.792 90.5202 28.056C91.4002 27.32 91.8402 26.288 91.8402 24.96C91.8402 23.616 91.4002 22.576 90.5202 21.84C89.6562 21.104 88.3842 20.736 86.7042 20.736H81.4482L82.2402 19.896V30ZM104.888 36.144C103.624 36.144 102.448 35.936 101.36 35.52C100.288 35.088 99.3519 34.488 98.5519 33.72C97.7679 32.936 97.1519 32.032 96.7039 31.008C96.2719 29.968 96.0559 28.832 96.0559 27.6C96.0559 26.368 96.2719 25.24 96.7039 24.216C97.1519 23.176 97.7679 22.272 98.5519 21.504C99.3519 20.72 100.288 20.12 101.36 19.704C102.432 19.272 103.608 19.056 104.888 19.056C106.152 19.056 107.32 19.272 108.392 19.704C109.464 20.12 110.392 20.712 111.176 21.48C111.976 22.248 112.592 23.152 113.024 24.192C113.472 25.232 113.696 26.368 113.696 27.6C113.696 28.832 113.472 29.968 113.024 31.008C112.592 32.048 111.976 32.952 111.176 33.72C110.392 34.488 109.464 35.088 108.392 35.52C107.32 35.936 106.152 36.144 104.888 36.144ZM104.888 34.56C105.896 34.56 106.824 34.392 107.672 34.056C108.536 33.704 109.28 33.216 109.904 32.592C110.544 31.952 111.04 31.216 111.392 30.384C111.744 29.536 111.92 28.608 111.92 27.6C111.92 26.592 111.744 25.672 111.392 24.84C111.04 23.992 110.544 23.256 109.904 22.632C109.28 21.992 108.536 21.504 107.672 21.168C106.824 20.816 105.896 20.64 104.888 20.64C103.88 20.64 102.944 20.816 102.08 21.168C101.216 21.504 100.464 21.992 99.8239 22.632C99.1999 23.256 98.7039 23.992 98.3359 24.84C97.9839 25.672 97.8079 26.592 97.8079 27.6C97.8079 28.592 97.9839 29.512 98.3359 30.36C98.7039 31.208 99.1999 31.952 99.8239 32.592C100.464 33.216 101.216 33.704 102.08 34.056C102.944 34.392 103.88 34.56 104.888 34.56ZM117.413 36V19.2H118.877L126.557 32.304H125.789L133.397 19.2H134.861V36H133.157V21.864H133.565L126.557 33.864H125.717L118.661 21.864H119.117V36H117.413ZM141.655 26.712H150.535V28.224H141.655V26.712ZM141.847 34.464H151.951V36H140.071V19.2H151.591V20.736H141.847V34.464ZM160.493 36.144C159.245 36.144 158.045 35.944 156.893 35.544C155.757 35.128 154.877 34.6 154.253 33.96L154.949 32.592C155.541 33.168 156.333 33.656 157.325 34.056C158.333 34.44 159.389 34.632 160.493 34.632C161.549 34.632 162.405 34.504 163.061 34.248C163.733 33.976 164.221 33.616 164.525 33.168C164.845 32.72 165.005 32.224 165.005 31.68C165.005 31.024 164.813 30.496 164.429 30.096C164.061 29.696 163.573 29.384 162.965 29.16C162.357 28.92 161.685 28.712 160.949 28.536C160.213 28.36 159.477 28.176 158.741 27.984C158.005 27.776 157.325 27.504 156.701 27.168C156.093 26.832 155.597 26.392 155.213 25.848C154.845 25.288 154.661 24.56 154.661 23.664C154.661 22.832 154.877 22.072 155.309 21.384C155.757 20.68 156.437 20.12 157.349 19.704C158.261 19.272 159.429 19.056 160.853 19.056C161.797 19.056 162.733 19.192 163.661 19.464C164.589 19.72 165.389 20.08 166.061 20.544L165.461 21.96C164.741 21.48 163.973 21.128 163.157 20.904C162.357 20.68 161.581 20.568 160.829 20.568C159.821 20.568 158.989 20.704 158.333 20.976C157.677 21.248 157.189 21.616 156.869 22.08C156.565 22.528 156.413 23.04 156.413 23.616C156.413 24.272 156.597 24.8 156.965 25.2C157.349 25.6 157.845 25.912 158.453 26.136C159.077 26.36 159.757 26.56 160.493 26.736C161.229 26.912 161.957 27.104 162.677 27.312C163.413 27.52 164.085 27.792 164.693 28.128C165.317 28.448 165.813 28.88 166.181 29.424C166.565 29.968 166.757 30.68 166.757 31.56C166.757 32.376 166.533 33.136 166.085 33.84C165.637 34.528 164.949 35.088 164.021 35.52C163.109 35.936 161.933 36.144 160.493 36.144Z" fill="white"/>
</svg>
